{"title":"Captain.Battle.Legacy.War.2013.DVDRiP.XViD-SML","uid":8542177,"size":738175378,"categoryP":"video","categoryS":"movies","magnet":"?xt=urn:btih:faef94739eb3a3251fb7afe145d46b2d7b137916&amp;dn=Captain.Battle.Legacy.War.2013.DVDRiP.XViD-SML&amp;tr=udp%3A%2F%2Ftracker.openbittorrent.com%3A80&amp;tr=udp%3A%2F%2Fopen.demonii.com%3A1337&amp;tr=udp%3A%2F%2Ftracker.coppersurfer.tk%3A6969&amp;tr=udp%3A%2F%2Fexodus.desync.com%3A6969","seeders":0,"leechers":2,"uploader":"xxxlavalxxx","files":-1,"time":1370426402,"description":" &lt;a href=&quot;http://www.imdb.com/title/tt2387413/&quot; rel=&quot;nofollow&quot; target=&quot;_NEW&quot;&gt;http://www.imdb.com/title/tt2387413/&lt;/a&gt;\n\n\n A Hero From the Past will Save our Future \n\nDirector:\n David Palmieri \n\nWriters:\n Keith Parker, Kenny White \n\nStars:\n Cuyle Carvin, Andrew J McGuinness, Marlene Mc'Cohen\n\nGenres:\n  Action |  Drama |  War \n\nCountry:\n USA \n\nLanguage:\n English \n\n\n\nFormat                                   : AVI\nFormat/Info                              : Audio Video Interleave\nFile size                                : 700 MiB\nDuration                                 : 1h 21mn\nOverall bit rate mode                    : Variable\nOverall bit rate                         : 1 194 Kbps\nWriting application                      : VirtualDubMod 1.5.10.2 (build 2540/release)\nWriting library                          : VirtualDubMod build 2540/release\n\nVideo\nID                                       : 0\nFormat                                   : MPEG-4 Visual\nFormat profile                           : Advanced Simple@L5\nFormat settings, BVOP                    : 1\nFormat settings, QPel                    : No\nFormat settings, GMC                     : No warppoints\nFormat settings, Matrix                  : Default (H.263)\nCodec ID                                 : XVID\nCodec ID/Hint                            : XviD\nDuration                                 : 1h 21mn\nBit rate                                 : 1 020 Kbps\nWidth                                    : 640 pixels\nHeight                                   : 352 pixels\nDisplay aspect ratio                     : 16:9\nFrame rate                               : 25.000 fps\nColor space                              : YUV\nChroma subsampling                       : 4:2:0\nBit depth                                : 8 bits\nScan type                                : Progressive\nCompression mode                         : Lossy\nBits/(Pixel*Frame)                       : 0.181\nStream size                              : 597 MiB (85%)\nWriting library                          : XviD 64\n\nAudio\nID                                       : 1\nFormat                                   : MPEG Audio\nFormat version                           : Version 1\nFormat profile                           : Layer 3\nMode                                     : Joint stereo\nMode extension                           : MS Stereo\nCodec ID                                 : 55\nCodec ID/Hint                            : MP3\nDuration                                 : 1h 21mn\nBit rate mode                            : Variable\nBit rate                                 : 160 Kbps\nChannel(s)                               : 2 channels\nSampling rate                            : 48.0 KHz\nCompression mode                         : Lossy\nStream size                              : 94.7 MiB (14%)\nAlignment                                : Aligned on interleaves\nInterleave, duration                     : 24 ms (0.60 video frame)\nInterleave, preload duration             : 114 ms\nWriting library                          : LAME3.90.\nEncoding settings                        : -m j -V 4 -q 2 -lowpass 18 --abr 160\n\n\n\n\n\n\nscreens\n\n\n    &lt;a href=&quot;\thttp://addpix.net/viewer.php?file=08421761233564622239.jpg&quot; rel=&quot;nofollow&quot; target=&quot;_NEW&quot;&gt;\thttp://addpix.net/viewer.php?file=08421761233564622239.jpg&lt;/a&gt;\n    &lt;a href=&quot;\thttp://addpix.net/viewer.php?file=72585467766806023005.jpg&quot; rel=&quot;nofollow&quot; target=&quot;_NEW&quot;&gt;\thttp://addpix.net/viewer.php?file=72585467766806023005.jpg&lt;/a&gt;\n    &lt;a href=&quot;\thttp://addpix.net/viewer.php?file=28260478164614852352.jpg&quot; rel=&quot;nofollow&quot; target=&quot;_NEW&quot;&gt;\thttp://addpix.net/viewer.php?file=28260478164614852352.jpg&lt;/a&gt;\n    &lt;a href=&quot;\thttp://addpix.net/viewer.php?file=83971640278361674908.jpg&quot; rel=&quot;nofollow&quot; target=&quot;_NEW&quot;&gt;\thttp://addpix.net/viewer.php?file=83971640278361674908.jpg&lt;/a&gt;\n    &lt;a href=&quot;\thttp://addpix.net/viewer.php?file=88438681507336637085.jpg&quot; rel=&quot;nofollow&quot; target=&quot;_NEW&quot;&gt;\thttp://addpix.net/viewer.php?file=88438681507336637085.jpg&lt;/a&gt;\n    &lt;a href=&quot;\thttp://addpix.net/viewer.php?file=93688984045436887172.jpg&quot; rel=&quot;nofollow&quot; target=&quot;_NEW&quot;&gt;\thttp://addpix.net/viewer.php?file=93688984045436887172.jpg&lt;/a&gt;","torrent":{"xt":"urn:btih:faef94739eb3a3251fb7afe145d46b2d7b137916","amp;dn":"Captain.Battle.Legacy.War.2013.DVDRiP.XViD-SML","amp;tr":["udp%3A%2F%2Ftracker.openbittorrent.com%3A80","udp%3A%2F%2Fopen.demonii.com%3A1337","udp%3A%2F%2Ftracker.coppersurfer.tk%3A6969","udp%3A%2F%2Fexodus.desync.com%3A6969"],"infoHash":"faef94739eb3a3251fb7afe145d46b2d7b137916","infoHashBuffer":{"type":"Buffer","data":[250,239,148,115,158,179,163,37,31,183,175,225,69,212,107,45,123,19,121,22]},"announce":[],"urlList":[]}}